<mxfile host="app.diagrams.net" agent="Mozilla/5.0 (Windows NT 10.0; Win64; x64) AppleWebKit/537.36 (KHTML, like Gecko) Chrome/131.0.0.0 Safari/537.36" version="25.0.1">
  <diagram name="Page-1" id="zRw2CX7jJsPYUFLl7Zbs">
    <mxGraphModel dx="794" dy="446" grid="1" gridSize="10" guides="1" tooltips="1" connect="1" arrows="1" fold="1" page="1" pageScale="1" pageWidth="827" pageHeight="1169" math="0" shadow="0">
      <root>
        <mxCell id="0" />
        <mxCell id="1" parent="0" />
        <mxCell id="Jv6cU5vjCZzoRYUfGiRu-1" value="Sécurité de&lt;div&gt;DataPlate&amp;nbsp;&lt;/div&gt;" style="ellipse;whiteSpace=wrap;html=1;fillColor=#33001A;fontColor=#ffffff;strokeColor=#001DBC;" vertex="1" parent="1">
          <mxGeometry x="110" y="40" width="100" height="50" as="geometry" />
        </mxCell>
        <mxCell id="Jv6cU5vjCZzoRYUfGiRu-3" value="" style="endArrow=classic;html=1;rounded=0;strokeWidth=4;strokeColor=#FF6666;" edge="1" parent="1">
          <mxGeometry width="50" height="50" relative="1" as="geometry">
            <mxPoint x="160" y="90" as="sourcePoint" />
            <mxPoint x="120" y="140" as="targetPoint" />
          </mxGeometry>
        </mxCell>
        <mxCell id="Jv6cU5vjCZzoRYUfGiRu-4" value="" style="endArrow=classic;html=1;rounded=0;exitX=0.5;exitY=1;exitDx=0;exitDy=0;entryX=0.327;entryY=-0.017;entryDx=0;entryDy=0;entryPerimeter=0;strokeWidth=5;strokeColor=#FF6666;" edge="1" parent="1" source="Jv6cU5vjCZzoRYUfGiRu-1" target="Jv6cU5vjCZzoRYUfGiRu-6">
          <mxGeometry width="50" height="50" relative="1" as="geometry">
            <mxPoint x="160" y="100" as="sourcePoint" />
            <mxPoint x="190" y="140" as="targetPoint" />
          </mxGeometry>
        </mxCell>
        <mxCell id="Jv6cU5vjCZzoRYUfGiRu-5" value="sécurité physique" style="ellipse;whiteSpace=wrap;html=1;fillColor=#33001A;fontColor=#ffffff;strokeColor=#001DBC;" vertex="1" parent="1">
          <mxGeometry x="40" y="140" width="110" height="50" as="geometry" />
        </mxCell>
        <mxCell id="Jv6cU5vjCZzoRYUfGiRu-6" value="sécurité logicielle" style="ellipse;whiteSpace=wrap;html=1;fillColor=#33001A;fontColor=#ffffff;strokeColor=#001DBC;" vertex="1" parent="1">
          <mxGeometry x="160" y="140" width="100" height="55" as="geometry" />
        </mxCell>
      </root>
    </mxGraphModel>
  </diagram>
</mxfile>
